<?xml version="1.0" encoding="UTF-8" standalone="no"?>
<!-- Created with Inkscape (http://www.inkscape.org/) -->

<svg
   width="183mm"
   height="183mm"
   viewBox="0 0 183 183"
   version="1.1"
   id="svg1"
   xml:space="preserve"
   inkscape:version="1.3.2 (091e20e, 2023-11-25)"
   sodipodi:docname="sphiro.svg"
   inkscape:export-filename="sphiro.png"
   inkscape:export-xdpi="96"
   inkscape:export-ydpi="96"
   xmlns:inkscape="http://www.inkscape.org/namespaces/inkscape"
   xmlns:sodipodi="http://sodipodi.sourceforge.net/DTD/sodipodi-0.dtd"
   xmlns="http://www.w3.org/2000/svg"
   xmlns:svg="http://www.w3.org/2000/svg"><sodipodi:namedview
     id="namedview1"
     pagecolor="#ffffff"
     bordercolor="#000000"
     borderopacity="0.25"
     inkscape:showpageshadow="2"
     inkscape:pageopacity="0.0"
     inkscape:pagecheckerboard="0"
     inkscape:deskcolor="#d1d1d1"
     inkscape:document-units="mm"
     inkscape:zoom="0.41770981"
     inkscape:cx="9.5760261"
     inkscape:cy="143.64039"
     inkscape:window-width="1408"
     inkscape:window-height="673"
     inkscape:window-x="0"
     inkscape:window-y="25"
     inkscape:window-maximized="0"
     inkscape:current-layer="layer1" /><defs
     id="defs1" /><g
     inkscape:label="Layer 1"
     inkscape:groupmode="layer"
     id="layer1"
     transform="translate(-32.705311,5.0208082)"><rect
       style="fill:#50a3cb;fill-opacity:1;stroke:none;stroke-width:0.129209;stroke-opacity:1"
       id="rect5"
       width="183"
       height="183"
       x="-177.97919"
       y="32.705311"
       transform="rotate(-90)" /><g
       id="g7"
       transform="rotate(-90,119.0824,88.867669)"><circle
         style="fill:#f9f9f9;fill-opacity:1;stroke:none;stroke-width:0.0750001;stroke-opacity:1"
         id="path6"
         cx="121.47088"
         cy="93.990578"
         r="30.666418" /><g
         id="g6"
         transform="translate(0.95172947,0.41779315)"><path
           style="fill:#50a3cb;fill-opacity:1"
           d="m 117.63918,110.62281 c -1.43843,-0.22107 -4.2043,-1.20528 -5.99289,-2.13252 -2.19465,-1.13775 -5.02956,-4.01427 -6.40784,-6.50188 -1.51482,-2.734051 -1.86349,-4.287141 -1.85504,-8.263111 0.006,-3.01031 0.0922,-3.67841 0.68756,-5.35322 0.80091,-2.25306 1.62661,-3.7234 3.07578,-5.47709 0.58098,-0.70307 1.11792,-1.5138 1.19318,-1.80161 0.19074,-0.729414 -0.74042,-1.581874 -2.85314,-2.611994 -2.33993,-1.1409 -2.27448,-1.62913 0.24865,-1.855 3.04735,-0.2728 14.1147,-0.24647 16.61078,0.0395 4.52289,0.51821 7.44163,1.88461 10.37732,4.858144 3.51672,3.56205 4.96722,7.07345 4.93083,11.93667 -0.0236,3.15936 -0.48166,5.06914 -1.91079,7.967241 -1.88456,3.82166 -5.76507,7.07236 -10.0636,8.43027 -2.00575,0.63361 -6.26049,1.03819 -8.0408,0.76459 z"
           id="path1-9" /><path
           style="fill:#f9f9f9;fill-opacity:1"
           d="m 116.4509,106.87882 c -2.54529,-0.65385 -3.97394,-1.48909 -6.07955,-3.55434 -3.81253,-3.739432 -4.77782,-10.127042 -2.27408,-15.048162 1.24804,-2.453028 2.50539,-3.862298 4.72715,-5.298288 2.51653,-1.62651 4.42076,-2.1727 7.57485,-2.1727 2.22537,0 2.9556,0.11316 4.51269,0.69932 3.71109,1.39702 6.10539,3.64306 7.8439,7.358168 0.66699,1.42532 0.85515,2.22407 0.96092,4.07906 0.0742,1.30105 -0.003,2.93599 -0.17648,3.75017 -1.01444,4.754192 -5.37148,9.200512 -10.07794,10.284462 -1.61219,0.37131 -5.3907,0.31866 -7.01146,-0.0977 z"
           id="path2" /><path
           style="fill:#50a3cb;fill-opacity:1"
           d="m 124.68325,95.177929 c -2.23393,-0.99377 -2.74102,-4.92863 -0.91991,-7.1382 0.88014,-1.06788 2.35933,-1.26084 3.25457,-0.42456 1.03984,0.97136 1.41963,1.92244 1.41963,3.55507 0,2.94294 -1.80834,4.87335 -3.75429,4.00769 z"
           id="path5" /><path
           style="fill:#50a3cb;fill-opacity:1;stroke:none"
           d="m 115.2525,96.141139 c -1.38138,-1.0866 -1.77437,-2.10921 -1.77437,-4.61712 0,-2.59641 0.40268,-3.79234 1.66865,-4.95569 1.40727,-1.29321 3.30802,-1.28048 4.61942,0.0309 0.4228,0.4228 0.93762,1.42285 1.22311,2.37592 0.41743,1.39354 0.44829,1.8684 0.20133,3.09811 -0.40098,1.99661 -0.98783,3.13166 -2.03021,3.92672 -1.12882,0.861 -2.91095,0.92536 -3.90793,0.14114 z"
           id="path4" /></g></g></g></svg>
